<svg id="Layer_1" enable-background="new 0 0 256 256" height="512" viewBox="0 0 256 256" width="512" xmlns="http://www.w3.org/2000/svg"><path d="m218 113.257h-180v-48c0-3.866 3.134-7 7-7h166c3.866 0 7 3.134 7 7z" fill="#4671c6"/><path d="m205.099 43.804h-73.136c-2.209 0-4-1.791-4-4v-21c0-2.209 1.791-4 4-4h73.136c2.209 0 4 1.791 4 4v21c0 2.209-1.791 4-4 4z" fill="#a4c9ff"/><path d="m135.962 33.804v-9c0-1.105.895-2 2-2h61.136c1.105 0 2 .895 2 2v9c0 1.105-.895 2-2 2h-61.136c-1.104 0-2-.896-2-2z" fill="#f9cfcf"/><path d="m8 199.157v18.166c0 1.234.19 2.461.564 3.637l4.951 15.567c.895 2.814 3.118 4.669 5.595 4.669h108.89 108.89c2.477 0 4.7-1.855 5.595-4.669l4.951-15.567c.374-1.176.564-2.403.564-3.637v-18.166z" fill="#a4c9ff"/><path d="m218 113.257h-90-90l-29.059 60.676c-.621 1.297-.941 2.69-.941 4.097v21.128h240v-21.128c0-1.407-.32-2.8-.941-4.096z" fill="#4671c6"/><path d="m203.099 103.804h-69.136c-3.314 0-6-2.686-6-6v-24c0-3.314 2.686-6 6-6h69.136c3.314 0 6 2.686 6 6v24c0 3.313-2.687 6-6 6z" fill="#6bdddd"/><path d="m114.105 95.257h-61.407c-2.373 0-4.297-1.924-4.297-4.297v-6.407c0-2.373 1.924-4.297 4.297-4.297h61.407c2.373 0 4.297 1.924 4.297 4.297v6.407c-.001 2.374-1.924 4.297-4.297 4.297z" fill="#a4c9ff"/><path d="m159.197 43.804h18.667v14.454h-18.667z" fill="#a4c9ff"/><path d="m151.962 226.186h-48c-3.866 0-7-3.134-7-7 0-3.866 3.134-7 7-7h48c3.866 0 7 3.134 7 7 0 3.866-3.134 7-7 7z" fill="#e0ebfc"/><path d="m8.104 179.145c-.129 0-.261-.013-.393-.039-1.083-.216-1.786-1.27-1.57-2.353.329-1.646 1.328-1.668 4.638-1.738 1.77-.038 4.361-.07 7.657-.097 6.23-.051 15.381-.087 27.2-.106 19.9-.032 47.634-.021 82.433.037 59.248.097 119.248.293 119.847.295 1.105.003 1.997.902 1.994 2.006-.003 1.103-.898 1.994-2 1.994-.002 0-.004 0-.006 0-80.248-.264-232.821-.613-239.335-.054-.152.036-.308.055-.465.055zm1.959-1.609c0 .002-.001.004-.001.005 0-.001.001-.003.001-.005z" fill="#3762cc"/><path d="m118.819 135.533h-27.446c-.512 0-.927-.415-.927-.927v-4.696h29.301v4.696c-.001.512-.416.927-.928.927z" fill="#a4c9ff"/><path d="m164.641 135.533h-27.446c-.512 0-.927-.415-.927-.927v-4.696h29.301v4.696c0 .512-.416.927-.928.927z" fill="#a4c9ff"/><path d="m209.704 135.533h-25.591c-1.024 0-1.855-.83-1.855-1.855v-3.768h29.301v3.768c-.001 1.025-.831 1.855-1.855 1.855z" fill="#a4c9ff"/><path d="m119.746 154.781h-29.301v-9.51c0-1.024.83-1.855 1.855-1.855h25.591c1.024 0 1.855.83 1.855 1.855z" fill="#e0ebfc"/><path d="m165.569 154.781h-29.301v-9.51c0-1.024.83-1.855 1.855-1.855h25.591c1.024 0 1.855.83 1.855 1.855z" fill="#e0ebfc"/><path d="m118.819 160.806h-27.446c-.512 0-.927-.415-.927-.927v-5.097h29.301v5.097c-.001.511-.416.927-.928.927z" fill="#a4c9ff"/><path d="m136.268 154.781h29.301v5.097c0 .512-.415.927-.927.927h-27.446c-.512 0-.927-.415-.927-.927v-5.097z" fill="#a4c9ff"/><path d="m36.871 160.806h36.173c.486 0 .88-.415.88-.927v-5.097-9.51c0-1.024-.788-1.855-1.76-1.855h-25.989c-.497 0-.971.221-1.305.61l-7.968 9.269c-.586.682-.911 1.57-.911 2.49v4.092c0 .512.394.928.88.928z" fill="#e0ebfc"/><path d="m45.55 135.533h27.446c.512 0 .927-.415.927-.927v-4.696-8.752c0-1.024-.83-1.855-1.855-1.855h-19.224c-.6 0-1.163.29-1.511.78l-6.022 8.465c-.447.628-.687 1.38-.687 2.151v3.908c-.001.511.414.926.926.926z" fill="#e0ebfc"/><path d="m90.445 129.911h29.301v-8.752c0-1.024-.83-1.855-1.855-1.855h-25.591c-1.024 0-1.855.83-1.855 1.855z" fill="#e0ebfc"/><path d="m44.623 130.698v3.908c0 .512.415.927.927.927h27.446c.512 0 .927-.415.927-.927v-4.696h-29.205c-.056.259-.095.521-.095.788z" fill="#a4c9ff"/><path d="m136.268 129.911h29.301v-7.825c0-1.537-1.246-2.782-2.782-2.782h-23.737c-1.537 0-2.782 1.246-2.782 2.782z" fill="#e0ebfc"/><path d="m203.338 119.304h-19.226c-1.024 0-1.855.83-1.855 1.855v8.752h29.301v-.397l-6.709-9.43c-.348-.49-.911-.78-1.511-.78z" fill="#e0ebfc"/><path d="m35.991 155.786v4.092c0 .512.394.927.88.927h36.173c.486 0 .88-.415.88-.927v-5.097h-37.786c-.088.326-.147.661-.147 1.005z" fill="#a4c9ff"/><path d="m219.589 152.864-7.876-9.162c-.157-.183-.374-.286-.601-.286h-27.342c-.459 0-.832.415-.832.927v10.437 5.097c0 .512.372.927.832.927h36.269c.459 0 .832-.415.832-.927v-3.457c0-1.325-.459-2.599-1.282-3.556z" fill="#e0ebfc"/><path d="m183.084 154.781c-.087.326-.147.661-.147 1.005v4.092c0 .512.394.927.88.927h36.173c.486 0 .88-.415.88-.927v-3.457c0-.565-.1-1.114-.259-1.64z" fill="#a4c9ff"/><path d="m248 201.157h-240c-1.104 0-2-.896-2-2v-21.127c0-1.716.383-3.385 1.137-4.96l29.059-60.676c.333-.694 1.034-1.136 1.804-1.136h180c.77 0 1.471.442 1.804 1.136l29.059 60.676c.754 1.575 1.137 3.244 1.137 4.96v21.127c0 1.105-.896 2-2 2zm-238-4h236v-19.127c0-1.113-.25-2.201-.745-3.232l-28.515-59.541h-177.48l-28.515 59.54c-.495 1.032-.745 2.12-.745 3.233z" fill="#3762cc"/><path d="m236.89 243.196h-217.78c-3.333 0-6.347-2.436-7.5-6.062l-4.951-15.568c-.437-1.373-.659-2.8-.659-4.242v-18.167c0-1.104.896-2 2-2h240c1.104 0 2 .896 2 2v18.167c0 1.442-.222 2.869-.659 4.243l-4.951 15.567c-1.153 3.626-4.167 6.062-7.5 6.062zm-226.89-42.039v16.167c0 1.03.158 2.049.47 3.03l4.951 15.568c.623 1.958 2.105 3.274 3.689 3.274h217.78c1.583 0 3.066-1.316 3.689-3.275l4.951-15.567c.312-.981.47-2.001.47-3.031v-16.167h-236z" fill="#3762cc"/><path d="m218 115.257h-180c-1.104 0-2-.896-2-2v-48c0-4.962 4.038-9 9-9h166c4.962 0 9 4.038 9 9v48c0 1.105-.896 2-2 2zm-178-4h176v-46c0-2.757-2.243-5-5-5h-166c-2.757 0-5 2.243-5 5z" fill="#3762cc"/><path d="m102.575 44.887c-4.797 0-4.797-6-9.593-6-4.793 0-4.793 6-9.587 6-4.795 0-4.795-6-9.59-6-4.793 0-4.793 6-9.587 6-4.792 0-4.792-6-9.584-6v10.583 3.333 34.954h57.534v-34.953-3.334-10.583c-4.796 0-4.796 6-9.593 6z" fill="#e0ebfc"/><path d="m112.168 89.757h-57.534c-1.104 0-2-.896-2-2v-48.87c0-1.104.896-2 2-2 3.358 0 5.09 2.168 6.355 3.752 1.18 1.477 1.859 2.248 3.229 2.248 1.371 0 2.051-.771 3.231-2.249 1.265-1.583 2.997-3.751 6.356-3.751s5.092 2.168 6.357 3.751c1.181 1.478 1.861 2.249 3.232 2.249s2.05-.771 3.23-2.248c1.265-1.583 2.997-3.752 6.356-3.752 3.36 0 5.093 2.168 6.358 3.751 1.182 1.478 1.862 2.249 3.235 2.249s2.053-.771 3.234-2.249c1.266-1.583 2.999-3.751 6.359-3.751 1.104 0 2 .896 2 2v48.871c.002 1.104-.893 1.999-1.998 1.999zm-55.534-4h53.534v-44.034c-.382.359-.77.831-1.235 1.413-1.266 1.583-2.999 3.751-6.358 3.751-3.36 0-5.093-2.168-6.359-3.751-1.182-1.478-1.862-2.249-3.234-2.249-1.371 0-2.051.771-3.231 2.249-1.265 1.583-2.997 3.751-6.355 3.751-3.359 0-5.092-2.168-6.357-3.751-1.181-1.478-1.861-2.249-3.232-2.249s-2.051.771-3.231 2.249c-1.265 1.583-2.997 3.751-6.356 3.751-3.358 0-5.09-2.168-6.355-3.752-.462-.579-.848-1.05-1.229-1.408v44.03z" fill="#3762cc"/><path d="m103.651 62.806h-19.598c-1.657 0-3-1.343-3-3s1.343-3 3-3h19.599c1.657 0 3 1.343 3 3s-1.344 3-3.001 3z" fill="#a4c9ff"/><path d="m103.651 76.806h-40.5c-1.657 0-3-1.343-3-3s1.343-3 3-3h40.5c1.657 0 3 1.343 3 3s-1.343 3-3 3z" fill="#a4c9ff"/><g fill="#3762cc"><path d="m203.099 105.804h-69.136c-4.411 0-8-3.589-8-8v-24c0-4.411 3.589-8 8-8h69.136c4.411 0 8 3.589 8 8v24c0 4.411-3.589 8-8 8zm-69.137-36c-2.206 0-4 1.794-4 4v24c0 2.206 1.794 4 4 4h69.136c2.206 0 4-1.794 4-4v-24c0-2.206-1.794-4-4-4z"/><path d="m205.099 45.804h-73.136c-3.309 0-6-2.691-6-6v-21c0-3.309 2.691-6 6-6h73.136c3.309 0 6 2.691 6 6v21c0 3.308-2.692 6-6 6zm-73.137-29c-1.103 0-2 .897-2 2v21c0 1.103.897 2 2 2h73.136c1.103 0 2-.897 2-2v-21c0-1.103-.897-2-2-2z"/><path d="m177.864 60.257h-18.667c-1.104 0-2-.896-2-2v-14.453c0-1.104.896-2 2-2h18.667c1.104 0 2 .896 2 2v14.454c0 1.104-.896 1.999-2 1.999zm-16.667-4h14.667v-10.453h-14.667z"/><path d="m199.099 37.804h-61.136c-2.206 0-4-1.794-4-4v-9c0-2.206 1.794-4 4-4h61.136c2.206 0 4 1.794 4 4v9c0 2.205-1.795 4-4 4zm-61.137-13v9.002l61.136-.002v-9z"/><path d="m151.962 228.186h-48c-4.962 0-9-4.038-9-9s4.038-9 9-9h48c4.962 0 9 4.038 9 9s-4.037 9-9 9zm-48-14c-2.757 0-5 2.243-5 5s2.243 5 5 5h48c2.757 0 5-2.243 5-5s-2.243-5-5-5z"/></g></svg>